inDegrees=no
num_controls=7
num_derivatives=13
num_iterations=133
num_multipliers=7
num_parameters=0
num_slacks=7
num_states=26
objective=0.499399
objective_accelerations=0.069878
objective_balance=0.002555
objective_effort=0.064010
objective_height=0.351837
objective_ligament=0.011119
solver_duration=1800.363337
status=Solve_Succeeded
success=true
DataType=double
version=3
OpenSimVersion=4.5
endheader
time	/jointset/ground_pelvis/pelvis_tilt/value	/jointset/ground_pelvis/pelvis_tx/value	/jointset/ground_pelvis/pelvis_ty/value	/jointset/hip_l/hip_flexion_l/value	/jointset/hip_l/hip_adduction_l/value	/jointset/hip_l/hip_rotation_l/value	/jointset/back/lumbar_extension/value	/jointset/patellofemoral_l/patellar_flexion_l/value	/jointset/knee_l/knee_flexion_l/value	/jointset/knee_l/knee_adduction_l/value	/jointset/knee_l/knee_rotation_l/value	/jointset/ankle_l/ankle_angle_l/value	/jointset/subtalar_l/subtalar_angle_l/value	/jointset/ground_pelvis/pelvis_tilt/speed	/jointset/ground_pelvis/pelvis_tx/speed	/jointset/ground_pelvis/pelvis_ty/speed	/jointset/hip_l/hip_flexion_l/speed	/jointset/hip_l/hip_adduction_l/speed	/jointset/hip_l/hip_rotation_l/speed	/jointset/back/lumbar_extension/speed	/jointset/patellofemoral_l/patellar_flexion_l/speed	/jointset/knee_l/knee_flexion_l/speed	/jointset/knee_l/knee_adduction_l/speed	/jointset/knee_l/knee_rotation_l/speed	/jointset/ankle_l/ankle_angle_l/speed	/jointset/subtalar_l/subtalar_angle_l/speed	/forceset/tau_hip_flexion_l	/forceset/tau_hip_adduction_l	/forceset/tau_hip_rotation_l	/forceset/tau_knee_flexion_l	/forceset/tau_ankle_angle_l	/forceset/tau_subtalar_angle_l	/forceset/tau_lumbar_extension	lambda_cid13_p0	lambda_cid13_p1	lambda_cid13_p2	lambda_cid13_p3	lambda_cid13_p4	lambda_cid13_p5	lambda_cid14_p0	/jointset/ground_pelvis/pelvis_tilt/accel	/jointset/ground_pelvis/pelvis_tx/accel	/jointset/ground_pelvis/pelvis_ty/accel	/jointset/hip_l/hip_flexion_l/accel	/jointset/hip_l/hip_adduction_l/accel	/jointset/hip_l/hip_rotation_l/accel	/jointset/back/lumbar_extension/accel	/jointset/patellofemoral_l/patellar_flexion_l/accel	/jointset/knee_l/knee_flexion_l/accel	/jointset/knee_l/knee_adduction_l/accel	/jointset/knee_l/knee_rotation_l/accel	/jointset/ankle_l/ankle_angle_l/accel	/jointset/subtalar_l/subtalar_angle_l/accel	gamma_cid13_p0	gamma_cid13_p1	gamma_cid13_p2	gamma_cid13_p3	gamma_cid13_p4	gamma_cid13_p5	gamma_cid14_p0
1	-0.2533473794394021	-0.115329245552967	0.5047711388549554	1.973875129393823	-0.2936545685261021	0.1453871936403241	-0.9599178085426726	1.765285752014966	1.765285752014955	0.02755734691624222	-0.1745115979069113	0.1648512962025157	0.05830737717312991	0.0633431090737608	0.01018088155585587	0.08295620647747869	-0.2918636160817601	-0.01814884759299021	-0.06076798339178969	0.000230047311497027	-0.1605518188765884	-0.1605518188765933	-0.01135313528863483	2.156141411618265e-05	0.06048083909697138	0.004262377376682623	-0.4997418186793758	-0.04426582888418967	-0.003767332809164378	-0.3828779384448943	0.1419394197953629	0.00447932157567843	0.4972329209133818	-11.35225539017913	3.816410038000233	-5.373656612948333	16.24507567692016	-858.8627857328034	-58.77243560987601	-0.03641144843198958	0.5234477196349318	-0.1996409082420729	2.570101431521395	-7.738222117011566	-0.572365529141314	-1.955205225410996	-0.02365328294539992	-6.516887797328866	-6.516887797328839	-0.8954135677244783	-0.03308835436034753	0.2854526405953666	-0.5331784394193366	1.261994290177258e-09	1.171916462904415e-08	-4.688431543308066e-08	-3.069808655756923e-08	-3.421827603616343e-08	1.566816744471641e-07	-1.467247342095872e-08
1.01	-0.2526879119312767	-0.1152373050985896	0.505729040651717	1.970570202279628	-0.2938635182012865	0.1446822032686867	-0.9599162812870683	1.763354571839066	1.763354571839068	0.02739967566597041	-0.1745114064623014	0.1654701352323131	0.0583245980265188	0.06858355699706514	0.008224313635160142	0.1086113670344826	-0.3690932046150173	-0.02362090972276861	-0.08021989353221272	7.235210902488463e-05	-0.2256698499062835	-0.225669849906286	-0.02017162284793017	1.677904236831964e-05	0.06323934512816223	-0.0008154753658363697	-0.4990525513081014	-0.04404794109759622	-0.003757209832968285	-0.3833033602786132	0.1420901365269881	0.004763929258931774	0.496979193544905	-11.2553984504984	3.673299573232673	-5.347932675046941	15.93875107828827	-858.5020612711392	-58.97287253304027	-0.03646976873576405	0.5293125942577382	-0.1911074582922521	2.561296448071769	-7.711042565115256	-0.5315840254126704	-1.938671877535237	-0.01228539494438347	-6.507101494088436	-6.507101494088054	-0.8736592795258057	0.0158291635965138	0.263904825099773	-0.4946726202021	-4.085421172180562e-10	1.302120323034632e-09	-5.40793409154077e-08	-4.174653565364892e-08	-4.510830852564209e-08	1.975565195830409e-07	-2.144218861767072e-08
1.02	-0.251975046090803	-0.1151644188682809	0.5069431086701049	1.966493836211383	-0.2941265799918708	0.143782996201813	-0.9599164225346662	1.760772643205208	1.760772643205215	0.02715410095420536	-0.1745112623729754	0.1661151303705659	0.05829112356677573	0.07402277554355505	0.006370036742115123	0.1341894508027687	-0.4461514068935703	-0.02897127067321131	-0.09961132243972662	-0.0001036533352958222	-0.2907015104679233	-0.2907015104679229	-0.02893382758697479	1.209035776180537e-05	0.06571206078810539	-0.005876685249712182	-0.4983632839367962	-0.04383005331099186	-0.003747086856778523	-0.3837287821123362	0.1422408532586059	0.005048536942195172	0.4967254661764585	-11.15608852687727	3.530312535656171	-5.322859219590561	15.62681449766097	-858.1181070780865	-59.11980399660591	-0.0365361777451479	0.5632018442720443	-0.1791827027119355	2.554686073777847	-7.703944866070761	-0.5480252932741738	-1.943108978829171	-0.02731533131529908	-6.499613703717809	-6.499613703717692	-0.8841570036743313	-0.03306961693207627	0.2282945663458164	-0.5298498676907026	-2.616804114182482e-09	-8.527868004860687e-09	-5.820660381470947e-08	-5.017480462747206e-08	-5.477363104792086e-08	2.37375677225954e-07	-2.794449840706176e-08
1.03	-0.2512067133363599	-0.1151094793910026	0.5084124897997274	1.961647995868106	-0.2944424492359742	0.1426902143219693	-0.959918279957463	1.757540926594894	1.757540926594897	0.0268212565523033	-0.174511164248454	0.1667831932324194	0.05820712922756118	0.07968351358935241	0.004643096514412166	0.1596660092386828	-0.522963843717838	-0.03417157057678205	-0.1189276618051975	-0.0002564040763842751	-0.3556189984396246	-0.3556189984396168	-0.03762086156591413	1.118630015136497e-05	0.0678308204830901	-0.010915796750468	-0.4975375542093554	-0.0434971538610268	-0.003724938339020901	-0.3841512731883842	0.1425646021179778	0.005430810693235097	0.4964641860503777	-10.98246342866561	3.327685678986678	-5.283467877613447	15.16536776478253	-857.5940337414015	-59.33967343126552	-0.0366260995566233	0.5734627324325909	-0.1656757788620983	2.541012902243801	-7.661978564340372	-0.501362007078858	-1.923315871655393	-0.007540873790997219	-6.484387442385998	-6.484387442384951	-0.8588750546854605	0.01694222300973653	0.1932098602973856	-0.4899733098023297	-4.830553106958841e-09	-1.835186596563239e-08	-6.230256301418444e-08	-5.857633706943543e-08	-6.442645652971798e-08	2.771840625475103e-07	-3.444407956984747e-08
